<svg xmlns="http://www.w3.org/2000/svg" width="56" height="56" viewBox="0 0 56 56"><path fill="#393837" d="M32 38c0-3.313 2.687-6 6-6 1.825 0 3.458.818 4.56 2.104.847-1.87 1.348-3.932 1.415-6.103-3.65-4.85-9.437-8-15.975-8s-12.325 3.15-15.975 8.004c.067 2.17.57 4.23 1.417 6.102C14.542 32.818 16.174 32 18 32c3.314 0 6 2.687 6 6 0 1.724-.73 3.272-1.895 4.367 1.825.726 3.81 1.133 5.895 1.133s4.07-.407 5.895-1.133C32.73 41.272 32 39.724 32 38z"/><path fill="#FFF" d="M32 38c0-3.313 2.687-6 6-6 .43 0 .85.047 1.254.134.475-1.29.746-2.68.746-4.134 0-1.652-.334-3.225-.938-4.657C35.892 21.233 32.092 20 28 20s-7.893 1.234-11.062 3.343C16.334 24.775 16 26.348 16 28c0 1.455.272 2.843.746 4.134C17.15 32.047 17.57 32 18 32c3.314 0 6 2.687 6 6 0 .43-.047.85-.133 1.254 1.29.475 2.678.746 4.133.746s2.843-.27 4.134-.746C32.047 38.85 32 38.43 32 38z" opacity=".2"/><circle fill="#FEC30B" cx="28" cy="28" r="2"/><path fill="#575655" d="M28 8C16.955 8 8 16.954 8 28s8.955 20 20 20c11.046 0 20-8.954 20-20S39.046 8 28 8zm0 35c-8.284 0-15-6.716-15-15s6.716-15 15-15 15 6.716 15 15-6.716 15-15 15z"/></svg>