<svg xmlns="http://www.w3.org/2000/svg" width="56" height="56" viewBox="0 0 56 56"><path fill-rule="evenodd" clip-rule="evenodd" fill="#DE3322" d="M8 13.5c0-3.3 2.7-6 6-6h28c3.3 0 6 2.7 6 6v28c0 3.3-2.7 6-6 6H14c-3.3 0-6-2.7-6-6v-28z"/><path fill="#FFF" d="M41.3 24.2l-3.8-.4c-.9-.1-2.3-.7-3-1.2l-2.7-2.1c-1.2-.9-3.2-1.6-4.8-1.6h-5.7c-1.6 0-3.6.8-4.7 1.8l-3.1 2.8c-1.2 1.1-2 3-2 4.4l-.1 2.6c0 1.8 1.7 3.4 3.8 3.4h.8c.6 1.5 2.1 2.5 3.8 2.5 1.7 0 3.2-1 3.8-2.5H31c.6 1.5 2.1 2.5 3.8 2.5 1.7 0 3.2-1 3.8-2.5H41c2 0 3.6-1.5 3.6-3.4l.1-2.6c0-1.9-1.5-3.5-3.4-3.7zm-23.2 7.4c.1-.2.1-.3.2-.5.3-.4.7-.6 1.3-.6.5 0 1 .3 1.3.6.1.1.2.3.2.4v.1c0 .1.1.3.1.5 0 .9-.7 1.6-1.6 1.6-.9 0-1.6-.7-1.6-1.6.1-.2.1-.3.1-.5zm15 0c.1-.2.2-.5.2-.5.3-.4.7-.6 1.3-.6.5 0 1 .3 1.3.6.1.1.2.3.2.4v.1c0 .1.1.3.1.5 0 .9-.7 1.6-1.6 1.6-.9 0-1.6-.7-1.6-1.6.1-.2.1-.3.1-.5zm8.9-1.2c0 .4-.4.8-1 .8h-2.3c-.4-1.9-2.1-3.2-4.1-3.2-2 0-3.6 1.4-4.1 3.2h-6.9c-.4-1.9-2.1-3.2-4.1-3.2-2 0-3.6 1.4-4.1 3.2h-.5c-.7 0-1.2-.4-1.2-.8l.1-2.5c0-.8.6-2 1.2-2.6l3.1-2.8c.6-.6 2-1.1 3-1.1h5.7c1 0 2.5.5 3.2 1.1l2.7 2.1c1.1.8 3 1.6 4.3 1.8l3.8.4c.6.1 1.1.6 1.1 1.1l.1 2.5z"/></svg>