<svg xmlns="http://www.w3.org/2000/svg" viewBox="0 0 1122.52 793.70667" height="793.707" width="1122.52"><defs><clipPath id="a"><path d="M0 595.28h841.89V0H0v595.28z"/></clipPath></defs><path d="M485.064 404.86h180.86V223.996h-180.86V404.86z" fill="#fc0"/><g clip-path="url(#a)" transform="matrix(1.33333 0 0 -1.33333 0 793.707)"><path d="M338.344 218.415c-12.21 0-21.708-9.498-21.708-21.707 0-12.212 9.498-21.708 21.708-21.708 12.21 0 21.708 9.497 21.708 21.708.678 12.21-9.497 21.707-21.708 21.707m124.82 0c-12.21 0-21.71-9.498-21.71-21.707 0-12.212 9.5-21.708 21.71-21.708s21.71 9.497 21.71 21.708c0 12.21-9.5 21.707-21.71 21.707" fill="#212121"/><path d="M520.825 375.107H343.092l-18.418 52.177h-58.34l.103-32.61h35.954l55.626-151.557 145.927 40.223s19.073 4.947 19.073 28.012v63.755h-2.19z" fill="#3f7ac6"/></g></svg>