<svg width="56" height="56" viewBox="0 0 56 56" xmlns="http://www.w3.org/2000/svg"><g transform="translate(5 5)" fill="none" fill-rule="evenodd"><circle fill="#222" cx="23" cy="23" r="12.78"/><path d="M23 46c12.7 0 23-10.3 23-23S35.7 0 23 0 0 10.3 0 23s10.3 23 23 23zm-8.76-26.3c3.02 0 5.47-2.44 5.47-5.46 0-3.03-2.4-5.48-5.4-5.48s-5.5 2.44-5.5 5.48c0 3.02 2.5 5.47 5.5 5.47zm0 17.54c3.02 0 5.47-2.45 5.47-5.48 0-3.02-2.4-5.47-5.4-5.47s-5.5 2.4-5.5 5.4 2.5 5.4 5.5 5.4zM23 26.3c1.8 0 3.3-1.5 3.3-3.3 0-1.8-1.5-3.3-3.3-3.3-1.8 0-3.3 1.5-3.3 3.3 0 1.8 1.5 3.3 3.3 3.3zm8.76-6.6c3.03 0 5.48-2.44 5.48-5.46 0-3.03-2.45-5.48-5.48-5.48-3.02 0-5.47 2.45-5.47 5.48 0 3.02 2.4 5.47 5.4 5.47zm0 17.54c3.03 0 5.48-2.45 5.48-5.48 0-3.02-2.45-5.47-5.48-5.47-3.02 0-5.47 2.4-5.47 5.4s2.4 5.5 5.4 5.5z" fill="#FC0"/></g></svg>
