<svg xmlns="http://www.w3.org/2000/svg" width="56" height="56" viewBox="0 0 56 56"><path fill="#FC0" d="M37.1 20H15.3C14 20 13 21.1 13 22.4c0 1.3 1 2.3 2.2 2.3H28c-.3.4-.5.9-.8 1.4h-16C10 26 9 27 9 28.3s1 2.3 2.3 2.3h14.8v1.5H13.8c-1.3 0-2.3 1-2.3 2.2 0 1.3 1 2.3 2.3 2.3h13.7c.3.5.6 1.1.9 1.5h-9.2c-1.1 0-2.1.9-2.1 2s.9 2 2.1 2h17.7c6 0 11-4.9 11-11.1s-4.8-11-10.8-11z"/><path fill="#EAB936" d="M45 23.4L32 10c-.6.5-1.3 1-1.5 1.8-.2.9 0 1.8.4 2.6.1.1.1.2.2.2L35 20c-.8 3.2.1 6.7 2.5 9.1 2.9 2.9 7.1 3.6 10.6 2v-.3c-.1-2.8-1.2-5.5-3.1-7.4z"/></svg>