<svg width="56" height="56" viewBox="0 0 400 401" xmlns="http://www.w3.org/2000/svg"><g fill="none" fill-rule="evenodd"><path d="M151.6 144.52c0-58.4 46.86-105.72 104.66-105.72S360.9 86.13 360.9 144.52c0 58.38-46.84 105.7-104.64 105.7S151.6 202.9 151.6 144.52" fill="#383838"/><path d="M260.44 172.3c-1.08 1.27-2.24 2.46-3.4 3.65-3.82-7.87-7.52-17.44-10.34-28.77 8.62-3.5 17.5-5.37 25.74-5.37 1.88 0 3.7.1 5.5.3-3.43 9.5-8.88 20.1-17.5 30.2m-38.56 21.2c-3.5-.5-5.68-2.2-7.06-5.4-3.82-8.9 4.45-23.5 17.92-33.2 3.37 12.4 7.7 22.9 12.1 31.4-8.25 5.4-16.68 8.3-22.96 7.4m93.88-43c-3.33-8.3-9.78-14.9-18.75-19.1 1.5-7.1 2-12.9 2.2-16.7h-15.5c-.1 2.9-.5 7.2-1.5 12.4-12-1.7-25.6 0-38.6 4.8-1.4-8.7-2.3-16.7-2.8-23.83 46.3-2.7 73.6-13.95 74.8-14.5l-6-14.5c-.3.14-26.1 10.7-69.4 13.3 0-10.72.7-17.25.7-17.6h-15.5c-.2 3-.7 9.3-.6 18.16l-1.4.04c-13.8.02-26.6-1.05-29.7-1.3v15.6c4.6.4 15.5 1.27 28 1.27h1.9l1.96-.02c.6 8.9 1.76 19.1 3.8 30.2-20.4 12.3-36.7 36.15-28.4 55.54 3.5 8.14 10.2 13.36 18.9 14.7 1.5.2 3 .33 4.6.33 8.8 0 18.9-3.6 28.58-9.78 6.3 9.5 11.4 14.5 11.88 14.9l10.6-11.3c-.1-.1-4.53-4.5-10.2-13.2 2.56-2.36 5-4.8 7.28-7.5 10.25-12.1 16.6-24.64 20.6-35.85 3.5 2 6.9 5.1 8.7 9.6 6.2 15.4-2.72 33.3-11 41.1l10.4 11.4c13.8-12.9 23.38-37.1 14.9-58.35" fill="#FFF"/><path d="M40.14 257.37C40.14 199 87 151.65 144.8 151.65c57.78 0 104.64 47.34 104.64 105.72 0 58.4-46.86 105.72-104.65 105.72-57.8 0-104.7-47.4-104.7-105.8" fill="#F00"/><path d="M163.93 264.36h-38.3l19.16-48.92 19.1 48.92zm-10.88-74.7h-16.53L85.12 314.6h21.03l12.64-33.24h51.9l12.6 33.24h21L153 189.67z" fill="#FFF"/></g></svg>