<svg width="56" height="56" viewBox="0 0 56 56" xmlns="http://www.w3.org/2000/svg" xmlns:xlink="http://www.w3.org/1999/xlink"><title/><defs><linearGradient x1="50%" y1="0%" x2="50%" y2="100%" id="a"><stop stop-color="#fff" offset="0%"/><stop stop-color="#BEBEBE" offset="100%"/></linearGradient><circle id="b" cx="28" cy="28" r="28"/><linearGradient x1="50%" y1="0%" x2="50%" y2="100%" id="c"><stop stop-color="#fff" offset="0%"/><stop stop-color="#EBEBEB" offset="100%"/></linearGradient><linearGradient x1="50%" y1="0%" x2="50%" y2="51.34%" id="e"><stop stop-opacity=".05" offset="0%"/><stop stop-color="#fff" stop-opacity="0" offset="100%"/></linearGradient><circle id="d" cx="28.44" cy="28.44" r="26.69"/><filter x="-50%" y="-50%" width="200%" height="200%" filterUnits="objectBoundingBox" id="f"><feOffset dy="3" in="SourceAlpha" result="shadowOffsetInner1"/><feGaussianBlur stdDeviation="3" in="shadowOffsetInner1" result="shadowBlurInner1"/><feComposite in="shadowBlurInner1" in2="SourceAlpha" operator="arithmetic" k2="-1" k3="1" result="shadowInnerInner1"/><feColorMatrix values="0 0 0 0 0 0 0 0 0 0 0 0 0 0 0 0 0 0 0.105 0" in="shadowInnerInner1" result="shadowMatrixInner1"/><feMerge><feMergeNode in="SourceGraphic"/><feMergeNode in="shadowMatrixInner1"/></feMerge></filter></defs><g fill="none"><use fill="url(#a)" xlink:href="#b"/><use xlink:href="#b"/><use fill="url(#c)" xlink:href="#d"/><use fill="url(#e)" xlink:href="#d"/><path d="M30.8 31.6v16c0 .3-1.3.5-2.8.5 0 0-2.8-.2-2.8-.5v-16L11.4 18c-.2-.2.5-1.3 1.6-2.4 1.1-1.1 2.1-1.8 2.3-1.6L28 26.5 40.6 14c.2-.2 1.3.5 2.4 1.6 1.1 1.1 1.8 2.2 1.6 2.4L30.8 31.6z" stroke="#fff" stroke-width="2" opacity=".7" fill="#fff"/><path d="M30.6 31.5v16.6c0 .3-1.1.4-2.6.5 0 0-2.6-.2-2.6-.5V31.5L11.4 18c-.2-.2.5-1.3 1.6-2.4 1.1-1.1 2.1-1.8 2.3-1.6L28 26.5 40.6 14c.2-.2 1.3.5 2.4 1.6 1.1 1.1 1.8 2.2 1.6 2.4l-14 13.5z" fill="#EC1C24" filter="url(#f)"/></g></svg>