<svg width="16" height="16" xmlns="http://www.w3.org/2000/svg"><g stroke="null" fill-rule="evenodd" fill="none"><path fill="#383838" d="M5.58 5.33c0-2.8 2.24-5.07 5-5.07 2.78 0 5.03 2.27 5.03 5.07 0 2.8-2.2 5.07-5 5.07s-5-2.27-5-5.07"/><path fill="#FFF" d="M10.8 6.66l-.17.18c-.18-.38-.36-.84-.5-1.38.42-.17.84-.26 1.24-.26.1 0 .18 0 .26.02-.16.45-.42.96-.84 1.44M8.9 7.68c-.17-.03-.28-.1-.34-.27-.2-.4.2-1.1.86-1.5.16.6.37 1.1.58 1.5-.4.3-.8.4-1.1.4m4.5-2c-.16-.4-.47-.7-.9-.9.07-.3.1-.6.1-.8h-.74c0 .2 0 .4-.06.6-.57-.1-1.22 0-1.85.2-.08-.4-.1-.8-.15-1.1 2.22-.1 3.52-.7 3.58-.7l-.28-.7s-1.25.5-3.33.7c0-.5.02-.83.02-.84h-.7L9 3c-.7 0-1.3-.07-1.4-.1v.76c.2.04.7.08 1.3.08h.2c.1.44.1.9.2 1.46-1 .5-1.7 1.7-1.3 2.6.2.4.5.64.9.7l.3.02c.4 0 .9-.18 1.3-.48.3.48.53.7.55.74l.5-.54s-.2-.2-.5-.6c.14-.1.26-.2.36-.38.5-.6.8-1.2 1-1.7.2.1.3.2.4.44.3.73-.1 1.6-.5 1.96l.5.54c.67-.6 1.1-1.74.7-2.8"/><path fill="#F00" d="M.24 10.74c0-2.8 2.24-5.07 5-5.07 2.78 0 5.03 2.27 5.03 5.07 0 2.8-2.25 5.07-5.02 5.07-2.77 0-5-2.2-5-5"/><path fill="#FFF" d="M6.17 11.07H4.33l.92-2.34.92 2.34zM5.65 7.5h-.8L2.4 13.48h1l.6-1.6h2.5l.6 1.6h1L5.66 7.5z"/></g></svg>