<svg width="16" height="16" viewBox="0 0 16 16" xmlns="http://www.w3.org/2000/svg" xmlns:xlink="http://www.w3.org/1999/xlink"><title/><defs><linearGradient x1="50%" y1="0%" x2="50%" y2="100%" id="a"><stop stop-color="#fff" offset="0%"/><stop stop-color="#BEBEBE" offset="100%"/></linearGradient><circle id="b" cx="8" cy="8" r="8"/><linearGradient x1="50%" y1="0%" x2="50%" y2="100%" id="c"><stop stop-color="#fff" offset="0%"/><stop stop-color="#EBEBEB" offset="100%"/></linearGradient><linearGradient x1="50%" y1="0%" x2="50%" y2="51.34%" id="e"><stop stop-opacity=".05" offset="0%"/><stop stop-color="#fff" stop-opacity="0" offset="100%"/></linearGradient><circle id="d" cx="8.13" cy="8.13" r="7.63"/><filter x="-50%" y="-50%" width="200%" height="200%" filterUnits="objectBoundingBox" id="f"><feOffset dy="3" in="SourceAlpha" result="shadowOffsetInner1"/><feGaussianBlur stdDeviation="3" in="shadowOffsetInner1" result="shadowBlurInner1"/><feComposite in="shadowBlurInner1" in2="SourceAlpha" operator="arithmetic" k2="-1" k3="1" result="shadowInnerInner1"/><feColorMatrix values="0 0 0 0 0 0 0 0 0 0 0 0 0 0 0 0 0 0 0.105 0" in="shadowInnerInner1" result="shadowMatrixInner1"/><feMerge><feMergeNode in="SourceGraphic"/><feMergeNode in="shadowMatrixInner1"/></feMerge></filter></defs><g fill="none"><use fill="url(#a)" xlink:href="#b"/><use xlink:href="#b"/><use fill="url(#c)" xlink:href="#d"/><use fill="url(#e)" xlink:href="#d"/><path d="M8.8 9v4.6c0 .1-.4.1-.8.2 0 0-.8-.1-.8-.2V9L3.3 5.1c-.1 0 .1-.3.4-.6.3-.3.6-.6.7-.5L8 7.6 11.6 4c.1-.1.4.2.7.5.3.3.5.6.4.6L8.8 9z" stroke="#fff" stroke-width="2" opacity=".7" fill="#fff"/><path d="M8.8 9v4.8s-.4.1-.8.1l-.7-.1V9l-4-3.9c-.1 0 .1-.3.4-.6.3-.3.6-.6.7-.5L8 7.6 11.6 4c.1-.1.4.2.7.5.3.3.5.6.4.6L8.8 9z" fill="#EC1C24" filter="url(#f)"/></g></svg>