<svg width="16" height="16" viewBox="0 0 16 16" xmlns="http://www.w3.org/2000/svg"><g fill="none" fill-rule="evenodd"><path d="M2.2 1C1.55 1 1 1.53 1 2.2v11.6c0 .67.54 1.2 1.2 1.2h8.28c.3 0 .63-.2.77-.43l3.4-5.7c.3-.5.3-1.25 0-1.73l-3.4-5.7c-.14-.25-.48-.44-.77-.44H2.2z" stroke-opacity=".15" stroke="#000" fill="#FFF"/><path d="M7.73 4C9.43 4 11 5.8 11 8H4c0-2.2 1.57-4 3.73-4" fill="#E00"/><path d="M7.98 8v3c0 .78.2 1.02.53 1.02s.5-.12.5-.62V11h1.1v.52c0-.13-.7 1.44-1.6 1.44S7 11.4 7 11.52V8h.98z" fill="#BDB7A5"/></g></svg>