<svg width="16" height="16" xmlns="http://www.w3.org/2000/svg"><g stroke="null"><path d="M.4 2.7C.4 1.36 1.47.28 2.68.28h10.74c1.2 0 2.28 1.08 2.28 2.42v10.74c0 1.2-1.07 2.28-2.28 2.28H2.68c-1.2 0-2.28-1.08-2.28-2.28V2.7z" fill="#DE3322" clip-rule="evenodd" fill-rule="evenodd"/><path d="M13.15 6.73l-1.48-.14c-.26 0-.8-.3-1.07-.4l-1.07-.9c-.53-.4-1.2-.7-1.88-.7H5.5c-.67 0-1.34.2-1.88.6L2.55 6.4c-.54.4-.8 1.2-.8 1.73v.94c0 .67.53 1.34 1.33 1.34h.4c.14.6.8 1 1.48 1 .54 0 1.2-.4 1.35-.9h3c.2.6.8 1 1.4 1 .7 0 1.4-.4 1.5-.9h1c.8 0 1.4-.5 1.4-1.3l.2-.9c0-.8-.7-1.3-1.3-1.4zM4.3 9.53V9.4c.13-.1.26-.25.53-.25.13 0 .4.14.54.27v.14c0 .14.13.14.13.27 0 .28-.27.55-.67.55s-.67-.27-.67-.54c.13-.12.13-.12.13-.26zm5.76 0V9.4c.14-.1.27-.25.54-.25.13 0 .4.14.54.27v.4c0 .28-.27.55-.54.55-.4 0-.67-.27-.67-.54.13-.12.13-.12.13-.26zm3.36-.4c0 .15-.14.28-.4.28h-.8c-.28-.6-.8-1.2-1.62-1.2-.8 0-1.34.6-1.6 1.2H6.3c-.13-.6-.8-1.2-1.47-1.2-.8 0-1.48.6-1.6 1.2h-.15c-.26 0-.53-.1-.53-.2v-1c0-.4.27-.8.53-1l1.2-1.1c.15-.1.68-.4 1.1-.4h2.27c.27 0 .94.3 1.2.4l.94.8c.5.4 1.2.7 1.7.7l1.5.3c.1 0 .4.2.4.4v1z" fill="#fff"/></g></svg>